<svg xmlns="http://www.w3.org/2000/svg" width="24" height="24" viewBox="0 0 24 24" fill="currentColor" class="icon icon-alipay">
  <path d="M21.422 15.358c-3.237-1.39-6.17-3.023-6.17-3.023s1.58-3.013 2.257-5.256H12.47V5.68h6.126V4.74H12.47V2.41h-2.64c-.31 0-.56.25-.56.56v1.77H3.1v.94h6.17v2.4H4.05v.94h9.137c-.542 1.67-1.422 3.326-2.55 4.725-2.25-1.003-4.6-1.78-6.34-1.78-3.13 0-4.63 1.813-4.63 3.594 0 2.334 2.133 4.088 5.68 4.088 2.85 0 5.39-1.27 7.44-3.457 2.36 1.19 5.323 2.62 8.25 3.857.83.345 1.74-.29 1.74-1.19v-3.627c0-.546-.328-1.037-.835-1.238zM4.6 16.69c-1.99 0-2.89-.815-2.89-1.826 0-.96.87-1.826 2.5-1.826 1.4 0 3.2.56 5.12 1.46-1.56 1.557-3.32 2.192-4.73 2.192z"/>
</svg>