<svg xmlns="http://www.w3.org/2000/svg" width="24" height="24" viewBox="0 0 24 24" fill="none" stroke="currentColor" stroke-width="2" stroke-linecap="round" stroke-linejoin="round" class="icon icon-tabler icons-tabler-outline icon-tabler-books"><path stroke="none" d="M0 0h24v24H0z" fill="none"/><path d="M5 4m0 1a1 1 0 0 1 1 -1h2a1 1 0 0 1 1 1v14a1 1 0 0 1 -1 1h-2a1 1 0 0 1 -1 -1z" /><path d="M9 4m0 1a1 1 0 0 1 1 -1h2a1 1 0 0 1 1 1v14a1 1 0 0 1 -1 1h-2a1 1 0 0 1 -1 -1z" /><path d="M5 8h4" /><path d="M9 16h4" /><path d="M13.803 4.56l2.184 -.56c.562 -.144 1.074 .245 1.144 .868l2.07 14.576c.07 .623 -.351 1.19 -.94 1.266l-2.184 .56c-.562 .144 -1.074 -.245 -1.144 -.868l-2.07 -14.576c-.07 -.623 .351 -1.19 .94 -1.266z" /><path d="M14 9.3l3.832 -.983" /></svg>
